<svg width="41" height="42" viewBox="0 0 41 42" fill="none" xmlns="http://www.w3.org/2000/svg">
<path d="M9.20017 26.4819C5.57637 19.2033 9.10882 13.3573 13.2127 9.79541C5.19079 13.2024 3.98544 23.2556 4.96624 27.4885L7.63763 34.7671L13.3815 39.7614L17.3692 41.1165L17.7176 41.1939L17.9886 41.2713L18.763 41.4262C18.8791 37.5159 18.492 35.5801 14.5042 32.2118C11.314 29.5172 9.63895 27.2691 9.20017 26.4819Z" fill="url(#paint0_linear_183_2)"/>
<path d="M0.528171 23.4622C-0.772678 6.5511 12.1429 1.05863 18.7633 0.42627C18.26 7.8597 15.6908 7.24024 10.9814 11.77C7.24294 15.3659 6.05061 18.1581 5.67737 21.2554C3.99496 35.2162 14.3626 40.5616 18.7633 41.4263C5.87869 39.6299 1.18634 29.3082 0.528171 23.4622Z" fill="url(#paint1_linear_183_2)"/>
<path d="M31.543 26.4819C35.1668 19.2033 31.6343 13.3573 27.5304 9.79541C35.5524 13.2024 36.7577 23.2556 35.7769 27.4885L33.1055 34.7671L27.3616 39.7614L23.3738 41.1165L23.0254 41.1939L22.7544 41.2713L21.9801 41.4262C21.8639 37.5159 22.2511 35.5801 26.2388 32.2118C29.429 29.5172 31.1042 27.2691 31.543 26.4819Z" fill="url(#paint2_linear_183_2)"/>
<path d="M40.2148 23.4622C41.5157 6.5511 28.6 1.05863 21.9795 0.42627C22.4828 7.8597 25.052 7.24024 29.7614 11.77C33.5 15.3659 34.6923 18.1581 35.0656 21.2554C36.748 35.2162 26.3802 40.5616 21.9795 41.4263C34.8642 39.6299 39.5566 29.3082 40.2148 23.4622Z" fill="url(#paint3_linear_183_2)"/>
<defs>
<linearGradient id="paint0_linear_183_2" x1="11.7277" y1="9.79541" x2="11.7277" y2="41.4262" gradientUnits="userSpaceOnUse">
<stop stop-color="#EE3C45"/>
<stop offset="1" stop-color="#FEDB0B"/>
</linearGradient>
<linearGradient id="paint1_linear_183_2" x1="9.60006" y1="0.42627" x2="9.60006" y2="41.4263" gradientUnits="userSpaceOnUse">
<stop stop-color="#58CDFB"/>
<stop offset="0.505208" stop-color="#2F51E8"/>
</linearGradient>
<linearGradient id="paint2_linear_183_2" x1="29.0154" y1="9.79541" x2="29.0154" y2="41.4262" gradientUnits="userSpaceOnUse">
<stop stop-color="#EE3C45"/>
<stop offset="1" stop-color="#FEDB0B"/>
</linearGradient>
<linearGradient id="paint3_linear_183_2" x1="31.1428" y1="0.42627" x2="31.1428" y2="41.4263" gradientUnits="userSpaceOnUse">
<stop stop-color="#58CDFB"/>
<stop offset="0.505208" stop-color="#2F51E8"/>
</linearGradient>
</defs>
</svg>
